<svg xmlns="http://www.w3.org/2000/svg" width="196" height="198" viewBox="0 0 196 198" fill="none">
  <g style="mix-blend-mode:color-burn" filter="url(#filter0_f_2006_1812)">
    <path fill-rule="evenodd" clip-rule="evenodd" d="M135.351 85.8923C142.147 69.9813 155.297 46.9149 165.579 32.0628C166.364 30.9295 164.205 28.7371 163.069 29.5187C148.271 39.7051 125.857 53.1198 110.014 60.5447C105.83 48.5482 101.729 33.2739 99.4143 21.4761C99.1493 20.1259 95.9178 20.1012 95.6575 21.4508C93.3783 33.2641 89.618 48.539 85.7695 60.6935C69.8629 54.1909 45.7298 40.5572 30.3909 29.9664C29.2603 29.1858 27.0603 31.3526 27.8378 32.4853C38.5682 48.1168 52.8877 72.2729 59.9125 88.1533C48.1421 92.1436 33.5547 95.992 22.1913 98.1908C20.8418 98.4519 20.8262 101.683 22.1765 101.948C33.9084 104.243 49.0547 108.007 61.1753 111.86C54.5513 127.792 40.9753 151.692 30.421 166.937C29.6363 168.071 31.7953 170.263 32.9307 169.481C47.8606 159.205 70.5408 145.642 86.4064 138.259C90.4424 150.058 94.3479 164.708 96.5853 176.11C96.8502 177.46 100.082 177.485 100.342 176.135C102.544 164.725 106.127 150.085 109.837 138.146C125.737 144.583 150.143 158.355 165.609 169.034C166.74 169.814 168.94 167.647 168.162 166.515C157.151 150.474 142.359 125.455 135.55 109.615C147.412 105.56 162.272 101.627 173.809 99.395C175.158 99.1339 175.174 95.9024 173.823 95.6382C162.261 93.3759 147.381 89.6868 135.351 85.8923Z" fill="#57565E" fill-opacity="0.4"/>
  </g>
  <defs>
    <filter id="filter0_f_2006_1812" x="1.17139" y="0.450943" width="193.657" height="196.684" filterUnits="userSpaceOnUse" color-interpolation-filters="sRGB">
      <feFlood flood-opacity="0" result="BackgroundImageFix"/>
      <feBlend mode="normal" in="SourceGraphic" in2="BackgroundImageFix" result="shape"/>
      <feGaussianBlur stdDeviation="10" result="effect1_foregroundBlur_2006_1812"/>
    </filter>
  </defs>
</svg>