<svg xmlns="http://www.w3.org/2000/svg" width="813" height="813" viewBox="0 0 813 813" fill="none">
  <g filter="url(#filter0_dii_2006_1696)">
    <path fill-rule="evenodd" clip-rule="evenodd" d="M76 4H745C780.346 4 809 32.6538 809 68V737C809 772.346 780.346 801 745 801H76C40.6538 801 12 772.346 12 737V68C12 32.6538 40.6538 4 76 4ZM76 20C49.4903 20 28 41.4903 28 68V737C28 763.51 49.4903 785 76 785H745C771.51 785 793 763.51 793 737V68C793 41.4903 771.51 20 745 20H76Z" fill="url(#paint0_linear_2006_1696)"/>
  </g>
  <defs>
    <filter id="filter0_dii_2006_1696" x="0" y="0" width="813" height="813" filterUnits="userSpaceOnUse" color-interpolation-filters="sRGB">
      <feFlood flood-opacity="0" result="BackgroundImageFix"/>
      <feColorMatrix in="SourceAlpha" type="matrix" values="0 0 0 0 0 0 0 0 0 0 0 0 0 0 0 0 0 0 127 0" result="hardAlpha"/>
      <feOffset dx="-4" dy="4"/>
      <feGaussianBlur stdDeviation="4"/>
      <feComposite in2="hardAlpha" operator="out"/>
      <feColorMatrix type="matrix" values="0 0 0 0 0.241667 0 0 0 0 0.159028 0 0 0 0 0.100694 0 0 0 0.7 0"/>
      <feBlend mode="normal" in2="BackgroundImageFix" result="effect1_dropShadow_2006_1696"/>
      <feBlend mode="normal" in="SourceGraphic" in2="effect1_dropShadow_2006_1696" result="shape"/>
      <feColorMatrix in="SourceAlpha" type="matrix" values="0 0 0 0 0 0 0 0 0 0 0 0 0 0 0 0 0 0 127 0" result="hardAlpha"/>
      <feOffset dx="-3" dy="3"/>
      <feGaussianBlur stdDeviation="1.5"/>
      <feComposite in2="hardAlpha" operator="arithmetic" k2="-1" k3="1"/>
      <feColorMatrix type="matrix" values="0 0 0 0 1 0 0 0 0 1 0 0 0 0 1 0 0 0 0.6 0"/>
      <feBlend mode="normal" in2="shape" result="effect2_innerShadow_2006_1696"/>
      <feColorMatrix in="SourceAlpha" type="matrix" values="0 0 0 0 0 0 0 0 0 0 0 0 0 0 0 0 0 0 127 0" result="hardAlpha"/>
      <feOffset dx="2" dy="-2"/>
      <feGaussianBlur stdDeviation="1"/>
      <feComposite in2="hardAlpha" operator="arithmetic" k2="-1" k3="1"/>
      <feColorMatrix type="matrix" values="0 0 0 0 0 0 0 0 0 0 0 0 0 0 0 0 0 0 0.25 0"/>
      <feBlend mode="normal" in2="effect2_innerShadow_2006_1696" result="effect3_innerShadow_2006_1696"/>
    </filter>
    <linearGradient id="paint0_linear_2006_1696" x1="771" y1="20.5" x2="68" y2="787" gradientUnits="userSpaceOnUse">
      <stop stop-color="#FEFCF4"/>
      <stop offset="1" stop-color="#D1C4B3"/>
    </linearGradient>
  </defs>
</svg>